# xmcd
#
# Track frame offsets:
#	150
#	27150
#	57422
#	75627
#	88950
#	118970
#	133692
#	148275
#	170620
#	193010
#	216857
#	238357
#	257915
#	282027
#
# Disc length: 3902 seconds
#
# Revision: 1
# Processed by: cddbd v1.5.1PL0 Copyright (c) Steve Scherf et al.
# Submitted via: CDex 1.50Beta5
#
DISCID=df0f3c0e
DTITLE=デーモン小暮 - SUPER ROCK SUMMIT II/RAINBOW EYES
DYEAR=1999
DGENRE=Rock
TTITLE0=デーモン小暮/MAN ON THE SILVER MOUNTAIN
TTITLE1=二井原実/TAROT WOMAN
TTITLE2=坂本英三/I SURRENDER
TTITLE3=森川之雄/DO YOU CLOSE YOUR EYES
TTITLE4=二井原実/EYES OF THE WORLD
TTITLE5=横関敦/MAYBE NEXT TIME
TTITLE6=二井原実/SENSITIVE TO LIGHT
TTITLE7=坂本英三/SPOTLIGHT KID
TTITLE8=寺田恵子/CAN’T HAPPEN HERE
TTITLE9=影山ヒロノブ/STONE COLD
TTITLE10=森川之雄/DEATH ALLEY DRIVER
TTITLE11=生沢佑一/STREET OF DREAMS
TTITLE12=藤村幸宏/STILL I’M SAD
TTITLE13=沼本秀樹/RAINBOW EYES
EXTD=
EXTT0=
EXTT1=
EXTT2=
EXTT3=
EXTT4=
EXTT5=
EXTT6=
EXTT7=
EXTT8=
EXTT9=
EXTT10=
EXTT11=
EXTT12=
EXTT13=
PLAYORDER=
